<svg xmlns="http://www.w3.org/2000/svg" viewBox="0 0 160 160"><path id="svg_1" fill="#2757d6" d="m97.108649,123.330997a31.91,31.91 0 0 1 -5.36,-5.09a45.18,45.18 0 0 1 -4.24,-6c-0.5,-0.85 -1,-1.7 -1.43,-2.55c-0.69,-1.28 -1.35,-2.58 -2,-3.89c-2.07,-4.36 -3.84,-8.81 -5.7,-13.17c-0.93,-2.18 -1.87,-4.34 -2.89,-6.46s-2.09,-4.2 -3.27,-6.2a43.22,43.22 0 0 0 -8.66,-10.75a34.72,34.72 0 0 0 -12,-6.78a48,48 0 0 0 -6.85,-1.73l-0.37,-0.06l-1.39,-0.22c-0.58,-0.1 -1.18,-0.14 -1.77,-0.22c-1.17,-0.17 -2.37,-0.22 -3.56,-0.35a34.64,34.64 0 0 0 -29.73,34.59c0.16,19.08 16,34.34 35.05,34.34l69.55,0a31.09,31.09 0 0 1 -8.92,-1.92a28,28 0 0 1 -6.46,-3.54z"/><path id="svg_2" fill="#00acff" d="m122.758649,59.860997a44.71,44.71 0 0 0 -85.15,0a54.65,54.65 0 0 1 7,0l0.18,0a44.91,44.91 0 0 1 7.17,1.12a35.27,35.27 0 0 1 6.93,2.46a33.63,33.63 0 0 1 6.26,3.91a42,42 0 0 1 9.62,11.09c1.29,2.07 2.44,4.22 3.52,6.39s2,4.38 3,6.59c1.87,4.42 3.6,8.85 5.52,13.15q1,2.3 2.14,4.52a52.25,52.25 0 0 0 4.73,7.63a31.62,31.62 0 0 0 4.72,5a27.44,27.44 0 0 0 5.81,3.74a37.45,37.45 0 0 0 13.68,3.33a34.64,34.64 0 0 0 4.92,-68.93l-0.05,0z"/></svg>