<svg width="1024" height="1024" xmlns="http://www.w3.org/2000/svg">
 <title>LOGO</title>

 <g id="Layer_1">
  <title>Layer 1</title>
  <g stroke="null">
   <g stroke="null">
    <path stroke="null" p-id="61579" d="m949.10951,77.87919c-55.37138,-55.37138 -133.56316,-64.08252 -225.8874,-64.08252l-423.5331,0c-91.21217,0 -169.40397,8.68797 -224.7985,64.08252c-55.37138,55.37136 -63.52649,133.0303 -63.52649,223.70961l0,419.20069c0,92.8571 8.13195,169.96 63.52649,225.33136c55.37138,55.37138 133.58634,64.08252 226.42026,64.08252l421.91134,0c92.32423,0 170.51602,-8.68797 225.8874,-64.08252c55.39454,-55.37136 63.52649,-132.47427 63.52649,-225.33136l0,-417.57894c0,-92.8571 -8.13195,-170.51602 -63.52649,-225.33136zm-23.88614,210.13319l0,447.4424c0,56.46027 -7.06622,114.00943 -39.61717,147.13959c-33.13015,32.57412 -91.79137,40.17321 -147.71879,40.1732l-451.7748,0c-55.92741,0 -114.56546,-7.59908 -147.13959,-40.1732c-33.13015,-33.13015 -40.19637,-90.67932 -40.19637,-147.16275l0,-445.79749c0,-56.99312 7.06622,-115.65434 39.64035,-148.22847c33.13015,-33.13015 92.30106,-40.1732 149.31737,-40.1732l450.15304,0c55.92741,0 114.56546,7.59908 147.69561,40.1732c32.57413,33.13015 39.64035,90.67932 39.64035,146.60672z"/>
   </g>
   <g stroke="null">
    <title stroke="null">YUANZHENG</title>
    <path id="svg_5" class="s0" d="m512.00002,512.00295l0,-384.66333c0,0 -163.57399,92.13681 -163.57399,194.72942l0,189.93391l163.57399,0z" fill="#ea4335" stroke="null"/>
    <path id="svg_4" fill-rule="evenodd" class="s1" d="m512.00002,528.04041l-163.57399,0c-2.08818,0 -4.09902,-0.39308 -6.03252,-1.25784c-1.9335,-0.78615 -3.63498,-1.96538 -5.10444,-3.45906c-1.46946,-1.49369 -2.62956,-3.22322 -3.40296,-5.18859c-0.7734,-1.96538 -1.23744,-4.00937 -1.23744,-6.13197l0,-189.93391c0,-110.76857 164.65675,-204.79215 171.69469,-208.80151c2.39754,-1.33646 5.10444,-2.04399 7.88867,-1.96538c2.7069,0 5.4138,0.78615 7.73399,2.20122c2.39754,1.41507 4.33104,3.45906 5.72316,5.81751c1.39212,2.43707 2.08818,5.18859 2.08818,8.01873l0,384.66333c0,2.12261 -0.3867,4.1666 -1.23744,6.13197c-0.7734,1.96538 -1.9335,3.69491 -3.40296,5.18859c-1.46946,1.49369 -3.17094,2.67291 -5.10444,3.45906c-1.9335,0.86477 -3.94434,1.25784 -6.03252,1.25784l0.00002,0.00001zm-147.79664,-32.07493l132.01929,0l0,-339.93138c-43.38771,28.85172 -132.01929,96.30341 -132.01929,166.03494l0,173.89644z" fill="#000000" stroke="null"/>
    <path id="Layer" class="s1" d="m512.00002,467.74269q-0.7734,0 -1.46946,-0.07862q-0.7734,-0.07862 -1.46946,-0.15723q-0.7734,-0.15723 -1.46946,-0.39308q-0.69606,-0.23585 -1.39212,-0.47169c-10.13153,-4.08798 -21.50051,-7.94012 -33.56554,-12.10671c-59.08772,-20.12545 -139.98531,-47.71932 -139.98531,-132.46632c0,-4.24521 1.70148,-8.33319 4.6404,-11.32056c2.93892,-2.98737 6.9606,-4.7169 11.13695,-4.7169c4.17636,0 8.19803,1.72953 11.13695,4.7169c3.01626,2.98737 4.6404,7.07535 4.6404,11.32056c0,57.23174 49.11087,78.4578 118.4848,102.12092c12.45173,4.24521 24.2074,8.25458 35.11234,12.65702c3.40296,1.33646 6.26454,3.85214 8.04335,7.15397c1.77882,3.30183 2.3202,7.07535 1.62414,10.77026c-0.61872,3.61629 -2.55222,6.91812 -5.4138,9.35519c-2.86158,2.35845 -6.41922,3.61629 -10.05419,3.61629l0.00001,0z" fill="#000000" stroke="null"/>
    <path id="Layer" class="s2" d="m512.00002,512.00295l-378.42437,0c0,0 90.64242,166.27078 191.57105,166.27078l186.85332,0l0,-166.27078z" fill="#fbbc05" stroke="null"/>
    <path id="Layer" fill-rule="evenodd" class="s1" d="m512.00002,694.3112l-186.85332,0c-108.97199,0 -201.47057,-167.37139 -205.4149,-174.52536c-1.31478,-2.43707 -2.01084,-5.18859 -1.9335,-8.01873c0,-2.75153 0.7734,-5.50305 2.16552,-7.8615c1.39212,-2.43707 3.40296,-4.40244 5.72316,-5.81751c2.39754,-1.41507 5.10444,-2.12261 7.88867,-2.12261l378.42437,0c2.08818,0 4.09902,0.39308 6.03252,1.25784c1.9335,0.78615 3.63498,1.96538 5.10444,3.45906c1.46946,1.49369 2.62956,3.22322 3.40296,5.18859c0.85074,1.96538 1.23744,4.00937 1.23744,6.13197l0,166.27078c0,2.12261 -0.3867,4.1666 -1.23744,6.13197c-0.7734,1.96538 -1.9335,3.69491 -3.40296,5.18859c-1.46946,1.49369 -3.17094,2.67291 -5.10444,3.45906c-1.9335,0.78615 -3.94434,1.25784 -6.03252,1.25784l0,0.00001zm-350.19529,-166.27078c28.38376,44.10303 94.74144,134.19585 163.34197,134.19585l171.07597,0l0,-134.19585l-334.41794,0z" fill="#000000" stroke="null"/>
    <path id="Layer" class="s1" d="m325.1467,694.3112c-4.17636,0 -8.19803,-1.72953 -11.13695,-4.7169c-2.93892,-2.98737 -4.6404,-7.07535 -4.6404,-11.32056c0,-4.24521 1.70148,-8.33319 4.6404,-11.32056c2.93892,-3.06599 6.9606,-4.7169 11.13695,-4.7169c56.30348,0 77.18527,-49.92054 100.46459,-120.43822c4.17636,-12.65702 8.12069,-24.6065 12.45173,-35.69122c1.5468,-3.93075 4.56306,-7.15397 8.35271,-8.80488c3.867,-1.72953 8.19803,-1.72953 12.06503,-0.23585c3.94434,1.5723 7.03794,4.63829 8.66207,8.56904c1.70148,3.93075 1.77882,8.33319 0.23202,12.26394c-4.02168,10.29857 -7.81133,21.85498 -11.91035,34.11892c-19.79903,60.06188 -46.94535,142.2932 -130.31781,142.2932l0.00001,-0.00001z" fill="#000000" stroke="null"/>
    <path id="Layer" class="s3" d="m512.00002,512.00295l0,384.66333c0,0 163.57399,-92.13681 163.57399,-194.72942l0,-189.93391l-163.57399,0z" fill="#34a853" stroke="null"/>
    <path id="Layer" fill-rule="evenodd" class="s1" d="m512.00002,912.70374c-2.08818,0 -4.09902,-0.39308 -6.03252,-1.17923c-1.9335,-0.86477 -3.63498,-2.04399 -5.10444,-3.45906c-1.46946,-1.49369 -2.62956,-3.30183 -3.40296,-5.26721c-0.85074,-1.88676 -1.23744,-4.00937 -1.23744,-6.13197l0,-384.66333c0,-2.12261 0.3867,-4.1666 1.23744,-6.13197c0.7734,-1.96538 1.9335,-3.69491 3.40296,-5.18859c1.46946,-1.49369 3.17094,-2.67291 5.10444,-3.45906c1.9335,-0.86477 3.94434,-1.25784 6.03252,-1.25784l163.57399,0c2.08818,0 4.09902,0.39308 6.03252,1.25784c1.9335,0.78615 3.63498,1.96538 5.10444,3.45906c1.46946,1.49369 2.62956,3.22322 3.40296,5.18859c0.7734,1.96538 1.23744,4.00937 1.23744,6.13197l0,189.93391c0,110.76857 -164.65675,204.79215 -171.69469,208.80151q-0.85074,0.47169 -1.77882,0.86477q-0.92808,0.39308 -1.9335,0.62892q-0.92808,0.23585 -1.9335,0.39308q-1.00542,0.07862 -2.01084,0.07862l0,-0.00001zm15.77735,-384.66333l0,339.93138c43.38771,-28.85172 132.01929,-96.30341 132.01929,-166.03494l0,-173.89644l-132.01929,0z" fill="#000000" stroke="null"/>
    <path id="Layer" class="s1" d="m675.57401,717.97432c-2.08818,0 -4.17636,-0.39308 -6.03252,-1.25784c-1.9335,-0.78615 -3.63498,-1.96538 -5.10444,-3.45906c-1.46946,-1.49369 -2.62956,-3.22322 -3.4803,-5.18859c-0.7734,-1.96538 -1.1601,-4.00937 -1.1601,-6.13197c0,-57.23174 -49.11087,-78.4578 -118.4848,-102.12092c-12.45173,-4.24521 -24.2074,-8.25458 -35.11234,-12.65702c-3.867,-1.5723 -7.03794,-4.63829 -8.66207,-8.49042c-1.70148,-3.93075 -1.70148,-8.33319 -0.23202,-12.26394c1.5468,-4.00937 4.56306,-7.15397 8.43005,-8.80488c3.867,-1.72953 8.19803,-1.80815 12.06503,-0.23585c10.13153,4.08798 21.50051,7.94012 33.56554,12.10671c59.08772,20.12545 139.98531,47.71932 139.98531,132.46632c0,2.12261 -0.46404,4.1666 -1.23744,6.13197c-0.7734,1.96538 -1.9335,3.69491 -3.40296,5.18859c-1.46946,1.49369 -3.24828,2.67291 -5.10444,3.45906c-1.9335,0.86477 -3.94434,1.25784 -6.03252,1.25784l0.00002,0z" fill="#000000" stroke="null"/>
    <path id="Layer" class="s4" d="m512.00002,512.00295l378.42437,0c0,0 -90.64242,-166.27078 -191.57105,-166.27078l-186.85332,0l0,166.27078z" fill="#4285f4" stroke="null"/>
    <path id="Layer" fill-rule="evenodd" class="s1" d="m890.42439,528.04041l-378.42437,0c-2.08818,0 -4.09902,-0.39308 -6.03252,-1.25784c-1.9335,-0.78615 -3.63498,-1.96538 -5.10444,-3.45906c-1.46946,-1.49369 -2.62956,-3.22322 -3.40296,-5.18859c-0.85074,-1.96538 -1.23744,-4.00937 -1.23744,-6.13197l0,-166.27078c0,-2.12261 0.3867,-4.1666 1.23744,-6.13197c0.7734,-1.96538 1.9335,-3.69491 3.40296,-5.18859c1.46946,-1.49369 3.17094,-2.67291 5.10444,-3.45906c1.9335,-0.78615 3.94434,-1.25784 6.03252,-1.25784l186.85332,0c108.97199,0 201.47057,167.37139 205.4149,174.52536c1.31478,2.43707 2.01084,5.18859 1.9335,8.01873c0,2.75153 -0.7734,5.50305 -2.16552,7.8615c-1.39212,2.43707 -3.40296,4.40244 -5.72316,5.81751c-2.39754,1.41507 -5.10444,2.12261 -7.88867,2.12261l0,-0.00001zm-362.64702,-32.07493l334.41794,0c-28.38376,-44.10303 -94.74144,-134.19585 -163.34197,-134.19585l-171.07597,0l0,134.19585z" fill="#000000" stroke="null"/>
    <path id="Layer" class="s1" d="m571.31976,528.04041c-2.62956,0 -5.10444,-0.62892 -7.42464,-1.88676c-2.24286,-1.17923 -4.17636,-2.98737 -5.64582,-5.10998c-1.46946,-2.20122 -2.3202,-4.63829 -2.62956,-7.3112c-0.30936,-2.5943 0.07734,-5.18859 1.00542,-7.62566c4.02168,-10.29857 7.81133,-21.85498 11.91035,-34.11892c19.79903,-60.06188 46.94535,-142.2932 130.31781,-142.2932c4.17636,0 8.19803,1.72953 11.13695,4.7169c2.93892,2.98737 4.6404,7.07535 4.6404,11.32056c0,4.24521 -1.70148,8.33319 -4.6404,11.32056c-2.93892,3.06599 -6.9606,4.7169 -11.13695,4.7169c-56.30348,0 -77.18527,49.92054 -100.46459,120.43822c-4.17636,12.65702 -8.12069,24.6065 -12.45173,35.69122c-0.54138,1.49369 -1.31478,2.90876 -2.3202,4.08798c-1.00542,1.25784 -2.16552,2.35845 -3.4803,3.30183c-1.31478,0.86477 -2.7069,1.5723 -4.17636,2.04399c-1.5468,0.47169 -3.0936,0.70754 -4.6404,0.70754l0.00002,0.00002z" fill="#000000" stroke="null"/>
    <path id="Layer" class="s5" d="m466.60147,512.00295c0,12.26394 4.79508,23.97758 13.30247,32.62524c8.50739,8.64765 20.03105,13.52178 32.09608,13.52178c12.06503,0 23.58868,-4.87413 32.09608,-13.52178c8.50739,-8.64765 13.30247,-20.36129 13.30247,-32.62524c0,-12.26394 -4.79508,-23.97758 -13.30247,-32.62524c-8.50739,-8.64765 -20.03105,-13.52178 -32.09608,-13.52178c-12.06503,0 -23.58868,4.87413 -32.09608,13.52178c-8.50739,8.64765 -13.30247,20.36129 -13.30247,32.62524z" fill="#ffffff" stroke="null"/>
    <path id="Layer" fill-rule="evenodd" class="s1" d="m512.00002,574.18743c-33.72022,0 -61.1759,-27.90833 -61.1759,-62.18449c0,-34.27615 27.45568,-62.18449 61.1759,-62.18449c33.72022,0 61.1759,27.90833 61.1759,62.18449c0,34.27615 -27.45568,62.18449 -61.1759,62.18449zm0,-92.29404c-3.867,0 -7.73399,0.78615 -11.36897,2.27984c-3.55764,1.49369 -6.80592,3.69491 -9.59015,6.52505c-2.78424,2.83014 -4.94976,6.13197 -6.41922,9.74826c-1.46946,3.69491 -2.24286,7.62566 -2.24286,11.55641c0,3.93075 0.7734,7.8615 2.24286,11.55641c1.46946,3.61629 3.63498,6.91812 6.41922,9.74826c2.78424,2.83014 6.03252,5.03136 9.59015,6.52505c3.63498,1.49369 7.50197,2.27984 11.36897,2.27984c3.867,0 7.73399,-0.78615 11.36897,-2.27984c3.55764,-1.49369 6.80592,-3.69491 9.59015,-6.52505c2.78424,-2.83014 4.94976,-6.13197 6.41922,-9.74826c1.46946,-3.69491 2.24286,-7.62566 2.24286,-11.55641c0,-3.93075 -0.7734,-7.8615 -2.24286,-11.55641c-1.46946,-3.61629 -3.63498,-6.91812 -6.41922,-9.74826c-2.78424,-2.83014 -6.03252,-5.03136 -9.59015,-6.52505c-3.63498,-1.49369 -7.50197,-2.27984 -11.36897,-2.27984z" fill="#000000" stroke="null"/>
   </g>
  </g>
 </g>
</svg>