<svg version="1.2" xmlns="http://www.w3.org/2000/svg" viewBox="0 0 1024 1024" width="1024" height="1024">
	<title>YUANZHENG</title>
	<style>
		.s0 { fill: #ea4335 } 
		.s1 { fill: #000000 } 
		.s2 { fill: #fbbc05 } 
		.s3 { fill: #34a853 } 
		.s4 { fill: #4285f4 } 
		.s5 { fill: #ffffff } 
	</style>
	<path id="Layer" class="s0" d="m512 512v-489.3c0 0-211.5 117.2-211.5 247.7v241.6z"/>
	<path id="Layer" fill-rule="evenodd" class="s1" d="m512 532.4h-211.5c-2.7 0-5.3-0.5-7.8-1.6-2.5-1-4.7-2.5-6.6-4.4-1.9-1.9-3.4-4.1-4.4-6.6-1-2.5-1.6-5.1-1.6-7.8v-241.6c0-140.9 212.9-260.5 222-265.6 3.1-1.7 6.6-2.6 10.2-2.5 3.5 0 7 1 10 2.8 3.1 1.8 5.6 4.4 7.4 7.4 1.8 3.1 2.7 6.6 2.7 10.2v489.3c0 2.7-0.5 5.3-1.6 7.8-1 2.5-2.5 4.7-4.4 6.6-1.9 1.9-4.1 3.4-6.6 4.4-2.5 1.1-5.1 1.6-7.8 1.6zm-191.1-40.8h170.7v-432.4c-56.1 36.7-170.7 122.5-170.7 211.2z"/>
	<path id="Layer" class="s1" d="m512 455.7q-1 0-1.9-0.1-1-0.1-1.9-0.2-1-0.2-1.9-0.5-0.9-0.3-1.8-0.6c-13.1-5.2-27.8-10.1-43.4-15.4-76.4-25.6-181-60.7-181-168.5 0-5.4 2.2-10.6 6-14.4 3.8-3.8 9-6 14.4-6 5.4 0 10.6 2.2 14.4 6 3.9 3.8 6 9 6 14.4 0 72.8 63.5 99.8 153.2 129.9 16.1 5.4 31.3 10.5 45.4 16.1 4.4 1.7 8.1 4.9 10.4 9.1 2.3 4.2 3 9 2.1 13.7-0.8 4.6-3.3 8.8-7 11.9-3.7 3-8.3 4.6-13 4.6z"/>
	<path id="Layer" class="s2" d="m512 512h-489.3c0 0 117.2 211.5 247.7 211.5h241.6z"/>
	<path id="Layer" fill-rule="evenodd" class="s1" d="m512 743.9h-241.6c-140.9 0-260.5-212.9-265.6-222-1.7-3.1-2.6-6.6-2.5-10.2 0-3.5 1-7 2.8-10 1.8-3.1 4.4-5.6 7.4-7.4 3.1-1.8 6.6-2.7 10.2-2.7h489.3c2.7 0 5.3 0.5 7.8 1.6 2.5 1 4.7 2.5 6.6 4.4 1.9 1.9 3.4 4.1 4.4 6.6 1.1 2.5 1.6 5.1 1.6 7.8v211.5c0 2.7-0.5 5.3-1.6 7.8-1 2.5-2.5 4.7-4.4 6.6-1.9 1.9-4.1 3.4-6.6 4.4-2.5 1-5.1 1.6-7.8 1.6zm-452.8-211.5c36.7 56.1 122.5 170.7 211.2 170.7h221.2v-170.7z"/>
	<path id="Layer" class="s1" d="m270.4 743.9c-5.4 0-10.6-2.2-14.4-6-3.8-3.8-6-9-6-14.4 0-5.4 2.2-10.6 6-14.4 3.8-3.9 9-6 14.4-6 72.8 0 99.8-63.5 129.9-153.2 5.4-16.1 10.5-31.3 16.1-45.4 2-5 5.9-9.1 10.8-11.2 5-2.2 10.6-2.2 15.6-0.3 5.1 2 9.1 5.9 11.2 10.9 2.2 5 2.3 10.6 0.3 15.6-5.2 13.1-10.1 27.8-15.4 43.4-25.6 76.4-60.7 181-168.5 181z"/>
	<path id="Layer" class="s3" d="m512 512v489.3c0 0 211.5-117.2 211.5-247.7v-241.6z"/>
	<path id="Layer" fill-rule="evenodd" class="s1" d="m512 1021.7c-2.7 0-5.3-0.5-7.8-1.5-2.5-1.1-4.7-2.6-6.6-4.4-1.9-1.9-3.4-4.2-4.4-6.7-1.1-2.4-1.6-5.1-1.6-7.8v-489.3c0-2.7 0.5-5.3 1.6-7.8 1-2.5 2.5-4.7 4.4-6.6 1.9-1.9 4.1-3.4 6.6-4.4 2.5-1.1 5.1-1.6 7.8-1.6h211.5c2.7 0 5.3 0.5 7.8 1.6 2.5 1 4.7 2.5 6.6 4.4 1.9 1.9 3.4 4.1 4.4 6.6 1 2.5 1.6 5.1 1.6 7.8v241.6c0 140.9-212.9 260.5-222 265.6q-1.1 0.6-2.3 1.1-1.2 0.5-2.5 0.8-1.2 0.3-2.5 0.5-1.3 0.1-2.6 0.1zm20.4-489.3v432.4c56.1-36.7 170.7-122.5 170.7-211.2v-221.2z"/>
	<path id="Layer" class="s1" d="m723.5 774c-2.7 0-5.4-0.5-7.8-1.6-2.5-1-4.7-2.5-6.6-4.4-1.9-1.9-3.4-4.1-4.5-6.6-1-2.5-1.5-5.1-1.5-7.8 0-72.8-63.5-99.8-153.2-129.9-16.1-5.4-31.3-10.5-45.4-16.1-5-2-9.1-5.9-11.2-10.8-2.2-5-2.2-10.6-0.3-15.6 2-5.1 5.9-9.1 10.9-11.2 5-2.2 10.6-2.3 15.6-0.3 13.1 5.2 27.8 10.1 43.4 15.4 76.4 25.6 181 60.7 181 168.5 0 2.7-0.6 5.3-1.6 7.8-1 2.5-2.5 4.7-4.4 6.6-1.9 1.9-4.2 3.4-6.6 4.4-2.5 1.1-5.1 1.6-7.8 1.6z"/>
	<path id="Layer" class="s4" d="m512 512h489.3c0 0-117.2-211.5-247.7-211.5h-241.6z"/>
	<path id="Layer" fill-rule="evenodd" class="s1" d="m1001.3 532.4h-489.3c-2.7 0-5.3-0.5-7.8-1.6-2.5-1-4.7-2.5-6.6-4.4-1.9-1.9-3.4-4.1-4.4-6.6-1.1-2.5-1.6-5.1-1.6-7.8v-211.5c0-2.7 0.5-5.3 1.6-7.8 1-2.5 2.5-4.7 4.4-6.6 1.9-1.9 4.1-3.4 6.6-4.4 2.5-1 5.1-1.6 7.8-1.6h241.6c140.9 0 260.5 212.9 265.6 222 1.7 3.1 2.6 6.6 2.5 10.2 0 3.5-1 7-2.8 10-1.8 3.1-4.4 5.6-7.4 7.4-3.1 1.8-6.6 2.7-10.2 2.7zm-468.9-40.8h432.4c-36.7-56.1-122.5-170.7-211.2-170.7h-221.2z"/>
	<path id="Layer" class="s1" d="m588.7 532.4c-3.4 0-6.6-0.8-9.6-2.4-2.9-1.5-5.4-3.8-7.3-6.5-1.9-2.8-3-5.9-3.4-9.3-0.4-3.3 0.1-6.6 1.3-9.7 5.2-13.1 10.1-27.8 15.4-43.4 25.6-76.4 60.7-181 168.5-181 5.4 0 10.6 2.2 14.4 6 3.8 3.8 6 9 6 14.4 0 5.4-2.2 10.6-6 14.4-3.8 3.9-9 6-14.4 6-72.8 0-99.8 63.5-129.9 153.2-5.4 16.1-10.5 31.3-16.1 45.4-0.7 1.9-1.7 3.7-3 5.2-1.3 1.6-2.8 3-4.5 4.2-1.7 1.1-3.5 2-5.4 2.6-2 0.6-4 0.9-6 0.9z"/>
	<path id="Layer" class="s5" d="m453.3 512c0 15.6 6.2 30.5 17.2 41.5 11 11 25.9 17.2 41.5 17.2 15.6 0 30.5-6.2 41.5-17.2 11-11 17.2-25.9 17.2-41.5 0-15.6-6.2-30.5-17.2-41.5-11-11-25.9-17.2-41.5-17.2-15.6 0-30.5 6.2-41.5 17.2-11 11-17.2 25.9-17.2 41.5z"/>
	<path id="Layer" fill-rule="evenodd" class="s1" d="m512 591.1c-43.6 0-79.1-35.5-79.1-79.1 0-43.6 35.5-79.1 79.1-79.1 43.6 0 79.1 35.5 79.1 79.1 0 43.6-35.5 79.1-79.1 79.1zm0-117.4c-5 0-10 1-14.7 2.9-4.6 1.9-8.8 4.7-12.4 8.3-3.6 3.6-6.4 7.8-8.3 12.4-1.9 4.7-2.9 9.7-2.9 14.7 0 5 1 10 2.9 14.7 1.9 4.6 4.7 8.8 8.3 12.4 3.6 3.6 7.8 6.4 12.4 8.3 4.7 1.9 9.7 2.9 14.7 2.9 5 0 10-1 14.7-2.9 4.6-1.9 8.8-4.7 12.4-8.3 3.6-3.6 6.4-7.8 8.3-12.4 1.9-4.7 2.9-9.7 2.9-14.7 0-5-1-10-2.9-14.7-1.9-4.6-4.7-8.8-8.3-12.4-3.6-3.6-7.8-6.4-12.4-8.3-4.7-1.9-9.7-2.9-14.7-2.9z"/>
</svg>