<svg version="1.2" xmlns="http://www.w3.org/2000/svg" viewBox="0 0 188 54" width="188" height="54">
	<title>logo-svg</title>
	<style>
		.s0 { fill: none;stroke: #222222;stroke-linecap: round;stroke-linejoin: round;stroke-width: 4.2 } 
		.s1 { fill: none;stroke: #ff5745;stroke-linecap: round;stroke-linejoin: round;stroke-width: 3.2 } 
		.s2 { fill: #222222 } 
		.s3 { fill: #171717 } 
	</style>
	<path id="Layer" class="s0" d="m16.9 25.6c0-8 6.5-12.2 11.9-12.2 7.1 0 12.8 5.8 12.8 12.9"/>
	<path id="Layer" class="s1" d="m18.4 40.9c-4 0-7.2-3.3-7.2-7.3 0-4 3.2-7.3 7.2-7.3"/>
	<path id="Layer" class="s0" d="m41.3 26.7c3 0.9 5.1 3.6 5.1 6.9 0 4-3.2 7.3-7.2 7.3h-1.7"/>
	<path id="Layer" class="s0" d="m18.4 40.9c-4 0-7.2-3.3-7.2-7.3 0-4 3.2-7.3 7.2-7.3 3.3 0 5.6 2 7.6 4.4q0.6 0.7 1.2 1.4 0.5 0.7 1.1 1.4 0.5 0.7 1.1 1.4 0.5 0.7 1 1.4c1.3 1.7 4 4.3 6.9 4.6"/>
	<path id="Layer" fill-rule="evenodd" class="s2" d="m36.8 38.8h-18.4v4.2h18.4q0.3 0 0.6-0.1 0.3-0.1 0.5-0.4 0.3-0.2 0.4-0.5 0.1-0.3 0.1-0.6v-1q0-0.3-0.1-0.6-0.1-0.3-0.4-0.5-0.2-0.3-0.5-0.4-0.3-0.1-0.6-0.1z"/>
	<path id="4S云盘" class="s3" aria-label="4S云盘"  d="m81.3 33.2v2h-3.2v5.4h-5.8v-5.4h-14.1q-0.6 0-1.2-0.3-0.5-0.2-0.8-0.7-0.3-0.5-0.3-1.1 0-0.6 0.4-1.2l10.4-18.9q0.3-0.6 0.8-0.9 0.6-0.3 1.2-0.3h7.2q1 0 1.6 0.6 0.6 0.7 0.6 1.6v19.2zm-10-17.2l-9.1 16.5q-0.1 0.3 0 0.5 0.1 0.2 0.4 0.2h9.7v-17q0-0.4-0.4-0.4-0.4-0.1-0.6 0.2zm37.8-2.2h-18.1q-0.3 0-0.5 0.2-0.3 0.2-0.3 0.6v9.4q0 0.3 0.3 0.5 0.2 0.3 0.5 0.3h15.6q0.9 0 1.5 0.6 0.7 0.7 0.7 1.6v11.4q0 0.9-0.7 1.6-0.6 0.6-1.5 0.6h-20.9l-1.1-1.9h17.9q0.3 0 0.6-0.3 0.2-0.2 0.2-0.5v-10.4q0-0.3-0.2-0.5-0.3-0.3-0.6-0.3h-15.6q-0.9 0-1.5-0.6-0.7-0.7-0.7-1.6v-10.4q0-1 0.7-1.6 0.6-0.7 1.5-0.7h22.2zm33.1-2.1v2.3h-27.9v-2.3zm1.5 13.3h-17l-3.2 13.3 10.2-1.5-2.1-8.2h8.2l3.5 13.5h-8.3l-0.8-3.2-19.8 3.1-0.6-2.2 1.1-0.2 3.5-14.6h-5.7v-2.2h31zm30.7-2.6v7.8h-10.9v-2.1h3.4v-5.7h-11.4v7.8h-7.6v-7.8h-2.2v-2.3h2.2v-7h8.6l0.3-2.3h8.6l-0.3 2.3h7.3q0.8 0 1.4 0.6 0.6 0.6 0.6 1.4v5h2.5v2.3zm-19-2.3h11.4v-4.1q0-0.7-0.7-0.7h-10.7zm2.7-3.9h5.5l0.3 3h-5.5zm5.5 7.2l0.4 4h-5.5l-0.4-4zm13.3 16.7v2.2h-31.3v-2.2h1.9v-8.7h25.4q0.8 0 1.4 0.6 0.6 0.6 0.6 1.4v6.7zm-20.5 0v-6.5h-1.6v6.5zm5.7 0v-6.5h-1.5v6.5zm4.9-6.5h-0.9v6.5h1.6v-5.8q0-0.7-0.7-0.7z"/>
</svg>