<?xml version="1.0" standalone="no"?><!DOCTYPE svg PUBLIC "-//W3C//DTD SVG 1.1//EN" "http://www.w3.org/Graphics/SVG/1.1/DTD/svg11.dtd"><svg t="1758939820999" class="icon" viewBox="0 0 1024 1024" version="1.1" xmlns="http://www.w3.org/2000/svg" p-id="22429" xmlns:xlink="http://www.w3.org/1999/xlink" width="18" height="18"><path d="M482.304 861.696c-223.232 0-404.992-181.248-404.992-404.992s181.248-404.992 404.992-404.992 404.992 181.248 404.992 404.992-181.76 404.992-404.992 404.992z m0-671.232c-146.432 0-265.728 119.296-265.728 265.728s119.296 265.728 265.728 265.728 265.728-119.296 265.728-265.728c0.512-146.432-118.784-265.728-265.728-265.728z" fill="#aaaaaa" p-id="22430"></path><path d="M657.408 800.768c-32.256-32.256-32.256-84.992 0-117.248 32.256-32.256 84.992-32.256 117.248 0l147.456 147.456c32.256 32.256 32.256 84.992 0 117.248-32.256 32.256-84.992 32.256-117.248 0l-147.456-147.456z" fill="#aaaaaa" p-id="22431"></path></svg>